<?xml version="1.0" encoding="utf-8"?>
<svg version="1.1" xmlns:xlink="http://www.w3.org/1999/xlink" width="30px" height="30px" viewBox="285 266  30 30" xmlns="http://www.w3.org/2000/svg">
  <path d="M 300 266  C 308.4 266  315 272.6  315 281  C 315 289.4  308.4 296  300 296  C 291.6 296  285 289.4  285 281  C 285 272.6  291.6 266  300 266  Z " fill-rule="nonzero" fill="#ffffff" stroke="none" />
  <path d="M 300 266.5  C 308.12 266.5  314.5 272.88  314.5 281  C 314.5 289.12  308.12 295.5  300 295.5  C 291.88 295.5  285.5 289.12  285.5 281  C 285.5 272.88  291.88 266.5  300 266.5  Z " stroke-width="1" stroke="#797979" fill="none" />
  <path d="M 300 288.5  C 295.8 288.5  292.5 285.2  292.5 281  C 292.5 276.8  295.8 273.5  300 273.5  C 304.2 273.5  307.5 276.8  307.5 281  C 307.5 285.2  304.2 288.5  300 288.5  " fill-rule="nonzero" fill="#797979" stroke="none" />
</svg>