<?xml version="1.0" encoding="utf-8"?>
<svg version="1.1" xmlns:xlink="http://www.w3.org/1999/xlink" width="204px" height="30px" xmlns="http://www.w3.org/2000/svg">
  <g>
    <path d="M 1 5  A 4 4 0 0 1 5 1 L 199 1  A 4 4 0 0 1 203 5 L 203 25  A 4 4 0 0 1 199 29 L 5 29  A 4 4 0 0 1 1 25 L 1 5  Z " fill-rule="nonzero" fill="#000000" stroke="none" fill-opacity="0.203921568627451" />
    <path d="M 0.5 5  A 4.5 4.5 0 0 1 5 0.5 L 199 0.5  A 4.5 4.5 0 0 1 203.5 5 L 203.5 25  A 4.5 4.5 0 0 1 199 29.5 L 5 29.5  A 4.5 4.5 0 0 1 0.5 25 L 0.5 5  Z " stroke-width="1" stroke="#797979" fill="none" stroke-opacity="0.196078431372549" />
  </g>
</svg>