<?xml version="1.0" encoding="utf-8"?>
<svg version="1.1" xmlns:xlink="http://www.w3.org/1999/xlink" width="39px" height="40px" xmlns="http://www.w3.org/2000/svg">
  <defs>
    <mask fill="white" id="clip2">
      <path d="M 30.9130859375 31.7057291666667  C 31.9710286458333 30.6206597222222  32.5 29.3142361111111  32.5 27.7864583333333  C 32.5 26.2586805555556  31.9710286458333 24.9479166666667  30.9130859375 23.8541666666667  C 29.8551432291667 22.7604166666667  28.5813802083333 22.2135416666667  27.091796875 22.2135416666667  C 25.669921875 22.2135416666667  24.4427083333333 22.7170138888889  23.41015625 23.7239583333333  L 17.291015625 20.5989583333333  C 17.3248697916667 20.3211805555556  17.341796875 20.1215277777778  17.341796875 20  C 17.341796875 19.8784722222222  17.3248697916667 19.6788194444444  17.291015625 19.4010416666667  L 23.41015625 16.2760416666667  C 24.4427083333333 17.2829861111111  25.669921875 17.7864583333333  27.091796875 17.7864583333333  C 28.5813802083333 17.7864583333333  29.8551432291667 17.2395833333333  30.9130859375 16.1458333333333  C 31.9710286458333 15.0520833333333  32.5 13.7413194444444  32.5 12.2135416666667  C 32.5 10.6857638888889  31.9710286458333 9.37934027777777  30.9130859375 8.29427083333334  C 29.8551432291667 7.20920138888889  28.5813802083333 6.66666666666667  27.091796875 6.66666666666667  C 25.6022135416667 6.66666666666667  24.32421875 7.20920138888889  23.2578125 8.29427083333334  C 22.19140625 9.37934027777777  21.658203125 10.6857638888889  21.658203125 12.2135416666667  C 21.658203125 12.3350694444444  21.6751302083333 12.5347222222222  21.708984375 12.8125  L 15.58984375 15.9375  C 14.5403645833333 14.9479166666667  13.3131510416667 14.453125  11.908203125 14.453125  C 10.4186197916667 14.453125  9.14485677083333 14.9956597222222  8.0869140625 16.0807291666667  C 7.02897135416667 17.1657986111111  6.5 18.4722222222222  6.5 20  C 6.5 21.5277777777778  7.02897135416667 22.8342013888889  8.0869140625 23.9192708333333  C 9.14485677083333 25.0043402777778  10.4186197916667 25.546875  11.908203125 25.546875  C 13.3131510416667 25.546875  14.5403645833333 25.0520833333333  15.58984375 24.0625  L 21.708984375 27.1875  C 21.6751302083333 27.4652777777778  21.658203125 27.6649305555556  21.658203125 27.7864583333333  C 21.658203125 29.3142361111111  22.19140625 30.6206597222222  23.2578125 31.7057291666667  C 24.32421875 32.7907986111111  25.6022135416667 33.3333333333333  27.091796875 33.3333333333333  C 28.5813802083333 33.3333333333333  29.8551432291667 32.7907986111111  30.9130859375 31.7057291666667  Z M 36.8544921875 2.20052083333333  C 38.2848307291667 3.66753472222222  39 5.43402777777777  39 7.5  L 39 32.5  C 39 34.5659722222222  38.2848307291667 36.3324652777778  36.8544921875 37.7994791666667  C 35.4241536458333 39.2664930555556  33.7018229166667 40  31.6875 40  L 7.3125 40  C 5.29817708333333 40  3.57584635416667 39.2664930555556  2.1455078125 37.7994791666667  C 0.715169270833333 36.3324652777778  0 34.5659722222222  0 32.5  L 0 7.5  C 0 5.43402777777777  0.715169270833333 3.66753472222222  2.1455078125 2.20052083333333  C 3.57584635416667 0.733506944444442  5.29817708333333 0  7.3125 0  L 31.6875 0  C 33.7018229166667 0  35.4241536458333 0.733506944444442  36.8544921875 2.20052083333333  Z " fill-rule="evenodd" />
    </mask>
  </defs>
  <g transform="matrix(1 0 0 1 -525 -714 )">
    <path d="M 30.9130859375 31.7057291666667  C 31.9710286458333 30.6206597222222  32.5 29.3142361111111  32.5 27.7864583333333  C 32.5 26.2586805555556  31.9710286458333 24.9479166666667  30.9130859375 23.8541666666667  C 29.8551432291667 22.7604166666667  28.5813802083333 22.2135416666667  27.091796875 22.2135416666667  C 25.669921875 22.2135416666667  24.4427083333333 22.7170138888889  23.41015625 23.7239583333333  L 17.291015625 20.5989583333333  C 17.3248697916667 20.3211805555556  17.341796875 20.1215277777778  17.341796875 20  C 17.341796875 19.8784722222222  17.3248697916667 19.6788194444444  17.291015625 19.4010416666667  L 23.41015625 16.2760416666667  C 24.4427083333333 17.2829861111111  25.669921875 17.7864583333333  27.091796875 17.7864583333333  C 28.5813802083333 17.7864583333333  29.8551432291667 17.2395833333333  30.9130859375 16.1458333333333  C 31.9710286458333 15.0520833333333  32.5 13.7413194444444  32.5 12.2135416666667  C 32.5 10.6857638888889  31.9710286458333 9.37934027777777  30.9130859375 8.29427083333334  C 29.8551432291667 7.20920138888889  28.5813802083333 6.66666666666667  27.091796875 6.66666666666667  C 25.6022135416667 6.66666666666667  24.32421875 7.20920138888889  23.2578125 8.29427083333334  C 22.19140625 9.37934027777777  21.658203125 10.6857638888889  21.658203125 12.2135416666667  C 21.658203125 12.3350694444444  21.6751302083333 12.5347222222222  21.708984375 12.8125  L 15.58984375 15.9375  C 14.5403645833333 14.9479166666667  13.3131510416667 14.453125  11.908203125 14.453125  C 10.4186197916667 14.453125  9.14485677083333 14.9956597222222  8.0869140625 16.0807291666667  C 7.02897135416667 17.1657986111111  6.5 18.4722222222222  6.5 20  C 6.5 21.5277777777778  7.02897135416667 22.8342013888889  8.0869140625 23.9192708333333  C 9.14485677083333 25.0043402777778  10.4186197916667 25.546875  11.908203125 25.546875  C 13.3131510416667 25.546875  14.5403645833333 25.0520833333333  15.58984375 24.0625  L 21.708984375 27.1875  C 21.6751302083333 27.4652777777778  21.658203125 27.6649305555556  21.658203125 27.7864583333333  C 21.658203125 29.3142361111111  22.19140625 30.6206597222222  23.2578125 31.7057291666667  C 24.32421875 32.7907986111111  25.6022135416667 33.3333333333333  27.091796875 33.3333333333333  C 28.5813802083333 33.3333333333333  29.8551432291667 32.7907986111111  30.9130859375 31.7057291666667  Z M 36.8544921875 2.20052083333333  C 38.2848307291667 3.66753472222222  39 5.43402777777777  39 7.5  L 39 32.5  C 39 34.5659722222222  38.2848307291667 36.3324652777778  36.8544921875 37.7994791666667  C 35.4241536458333 39.2664930555556  33.7018229166667 40  31.6875 40  L 7.3125 40  C 5.29817708333333 40  3.57584635416667 39.2664930555556  2.1455078125 37.7994791666667  C 0.715169270833333 36.3324652777778  0 34.5659722222222  0 32.5  L 0 7.5  C 0 5.43402777777777  0.715169270833333 3.66753472222222  2.1455078125 2.20052083333333  C 3.57584635416667 0.733506944444442  5.29817708333333 0  7.3125 0  L 31.6875 0  C 33.7018229166667 0  35.4241536458333 0.733506944444442  36.8544921875 2.20052083333333  Z " fill-rule="nonzero" fill="#000000" stroke="none" fill-opacity="0.203921568627451" transform="matrix(1 0 0 1 525 714 )" />
    <path d="M 30.9130859375 31.7057291666667  C 31.9710286458333 30.6206597222222  32.5 29.3142361111111  32.5 27.7864583333333  C 32.5 26.2586805555556  31.9710286458333 24.9479166666667  30.9130859375 23.8541666666667  C 29.8551432291667 22.7604166666667  28.5813802083333 22.2135416666667  27.091796875 22.2135416666667  C 25.669921875 22.2135416666667  24.4427083333333 22.7170138888889  23.41015625 23.7239583333333  L 17.291015625 20.5989583333333  C 17.3248697916667 20.3211805555556  17.341796875 20.1215277777778  17.341796875 20  C 17.341796875 19.8784722222222  17.3248697916667 19.6788194444444  17.291015625 19.4010416666667  L 23.41015625 16.2760416666667  C 24.4427083333333 17.2829861111111  25.669921875 17.7864583333333  27.091796875 17.7864583333333  C 28.5813802083333 17.7864583333333  29.8551432291667 17.2395833333333  30.9130859375 16.1458333333333  C 31.9710286458333 15.0520833333333  32.5 13.7413194444444  32.5 12.2135416666667  C 32.5 10.6857638888889  31.9710286458333 9.37934027777777  30.9130859375 8.29427083333334  C 29.8551432291667 7.20920138888889  28.5813802083333 6.66666666666667  27.091796875 6.66666666666667  C 25.6022135416667 6.66666666666667  24.32421875 7.20920138888889  23.2578125 8.29427083333334  C 22.19140625 9.37934027777777  21.658203125 10.6857638888889  21.658203125 12.2135416666667  C 21.658203125 12.3350694444444  21.6751302083333 12.5347222222222  21.708984375 12.8125  L 15.58984375 15.9375  C 14.5403645833333 14.9479166666667  13.3131510416667 14.453125  11.908203125 14.453125  C 10.4186197916667 14.453125  9.14485677083333 14.9956597222222  8.0869140625 16.0807291666667  C 7.02897135416667 17.1657986111111  6.5 18.4722222222222  6.5 20  C 6.5 21.5277777777778  7.02897135416667 22.8342013888889  8.0869140625 23.9192708333333  C 9.14485677083333 25.0043402777778  10.4186197916667 25.546875  11.908203125 25.546875  C 13.3131510416667 25.546875  14.5403645833333 25.0520833333333  15.58984375 24.0625  L 21.708984375 27.1875  C 21.6751302083333 27.4652777777778  21.658203125 27.6649305555556  21.658203125 27.7864583333333  C 21.658203125 29.3142361111111  22.19140625 30.6206597222222  23.2578125 31.7057291666667  C 24.32421875 32.7907986111111  25.6022135416667 33.3333333333333  27.091796875 33.3333333333333  C 28.5813802083333 33.3333333333333  29.8551432291667 32.7907986111111  30.9130859375 31.7057291666667  Z " stroke-width="2" stroke="#000000" fill="none" transform="matrix(1 0 0 1 525 714 )" mask="url(#clip2)" />
    <path d="M 36.8544921875 2.20052083333333  C 38.2848307291667 3.66753472222222  39 5.43402777777777  39 7.5  L 39 32.5  C 39 34.5659722222222  38.2848307291667 36.3324652777778  36.8544921875 37.7994791666667  C 35.4241536458333 39.2664930555556  33.7018229166667 40  31.6875 40  L 7.3125 40  C 5.29817708333333 40  3.57584635416667 39.2664930555556  2.1455078125 37.7994791666667  C 0.715169270833333 36.3324652777778  0 34.5659722222222  0 32.5  L 0 7.5  C 0 5.43402777777777  0.715169270833333 3.66753472222222  2.1455078125 2.20052083333333  C 3.57584635416667 0.733506944444442  5.29817708333333 0  7.3125 0  L 31.6875 0  C 33.7018229166667 0  35.4241536458333 0.733506944444442  36.8544921875 2.20052083333333  Z " stroke-width="2" stroke="#000000" fill="none" transform="matrix(1 0 0 1 525 714 )" mask="url(#clip2)" />
  </g>
</svg>